<svg xmlns="http://www.w3.org/2000/svg" xmlns:xlink="http://www.w3.org/1999/xlink" width="1080" zoomAndPan="magnify" viewBox="0 0 810 809.999993" height="1080" preserveAspectRatio="xMidYMid meet" version="1.0"><defs><clipPath id="59f8ac0484"><path d="M 0 231.308594 L 688.339844 231.308594 L 688.339844 809.921875 L 0 809.921875 Z M 0 231.308594 " clip-rule="nonzero"/></clipPath><clipPath id="cedef61dd7"><path d="M 0 460.507812 L 361 460.507812 L 361 810 L 0 810 Z M 0 460.507812 " clip-rule="nonzero"/></clipPath></defs><g clip-path="url(#59f8ac0484)"><path fill="#fddc68" d="M 0 231.988281 C 2.980469 231.386719 6.003906 231.441406 9.015625 231.386719 C 18.625 231.214844 28.230469 231.300781 37.820312 232.03125 C 53.988281 233.269531 69.96875 235.550781 85.511719 240.382812 C 98.023438 244.277344 109.859375 249.695312 121.207031 256.179688 C 137.171875 265.304688 152.328125 275.597656 166.03125 287.917969 C 175.632812 296.550781 184.097656 306.160156 190.871094 317.195312 C 197.492188 327.984375 202.003906 339.566406 203.871094 352.117188 C 205.023438 359.839844 205.070312 367.601562 204.421875 375.375 C 203.324219 388.535156 200.363281 401.355469 197.328125 414.160156 C 195.136719 423.394531 192.851562 432.605469 191.4375 441.996094 C 190.3125 449.476562 189.636719 456.976562 190.363281 464.574219 C 191.34375 474.808594 195.164062 483.738281 202.035156 491.371094 C 205.226562 494.914062 208.792969 498.039062 212.632812 500.859375 C 221.023438 507.019531 230.203125 511.757812 239.742188 515.84375 C 253.148438 521.59375 267.027344 525.890625 281.160156 529.410156 C 294.246094 532.664062 307.476562 535.199219 320.796875 537.308594 C 331.664062 539.027344 342.558594 540.535156 353.492188 541.792969 C 364.101562 543.015625 374.707031 544.261719 385.324219 545.4375 C 394.222656 546.421875 403.140625 547.25 412.039062 548.273438 C 421.789062 549.402344 431.523438 550.671875 441.265625 551.886719 C 451.542969 553.167969 461.769531 554.78125 471.957031 556.621094 C 496.195312 560.988281 519.976562 566.996094 542.851562 576.292969 C 579.996094 591.382812 611.15625 614.613281 636.878906 645.261719 C 651.382812 662.542969 663.558594 681.304688 672.777344 701.941406 C 679.007812 715.894531 683.5 730.371094 685.976562 745.453125 C 688.125 758.496094 688.566406 771.640625 688.253906 784.828125 C 688.058594 792.714844 687.382812 800.558594 686.570312 808.398438 C 686.519531 808.929688 686.371094 809.460938 686.785156 809.921875 C 681.597656 809.921875 676.421875 809.921875 671.234375 809.921875 C 670.925781 808.625 671.21875 807.335938 671.386719 806.070312 C 672.304688 799.105469 672.671875 792.097656 672.980469 785.089844 C 673.300781 777.75 673.101562 770.414062 672.601562 763.082031 C 672.175781 756.933594 671.425781 750.832031 670.316406 744.78125 C 667.652344 730.265625 662.859375 716.449219 656.484375 703.160156 C 647.980469 685.445312 637.152344 669.257812 624.472656 654.28125 C 600.175781 625.578125 570.785156 603.894531 535.78125 589.933594 C 516.285156 582.15625 496.101562 576.832031 475.535156 572.835938 C 460.492188 569.914062 445.332031 567.710938 430.136719 565.808594 C 418.789062 564.386719 407.414062 563.160156 396.042969 561.894531 C 384.140625 560.566406 372.222656 559.347656 360.324219 557.980469 C 350.890625 556.902344 341.460938 555.800781 332.054688 554.492188 C 318.488281 552.605469 304.976562 550.371094 291.574219 547.511719 C 276.59375 544.3125 261.804688 540.421875 247.367188 535.253906 C 235.574219 531.03125 224.117188 526.0625 213.328125 519.640625 C 206.632812 515.65625 200.332031 511.132812 194.671875 505.75 C 181.828125 493.527344 175.226562 478.578125 174.828125 460.832031 C 174.597656 450.730469 175.804688 440.789062 177.894531 430.949219 C 179.910156 421.460938 182.183594 412.023438 184.320312 402.558594 C 186.820312 391.5 189.0625 380.40625 189.453125 369.019531 C 189.691406 361.96875 189.140625 355.011719 187.503906 348.136719 C 185.011719 337.699219 180.300781 328.3125 174.128906 319.605469 C 167.976562 310.921875 160.652344 303.308594 152.554688 296.4375 C 138.679688 284.65625 123.578125 274.691406 107.519531 266.152344 C 102.375 263.417969 97.09375 260.976562 91.6875 258.808594 C 91.207031 258.617188 90.617188 258.082031 90.050781 258.796875 C 91.128906 259.921875 92.15625 261.015625 93.210938 262.082031 C 99.324219 268.277344 104.371094 275.242188 108.175781 283.082031 C 115.992188 299.167969 117.597656 316.125 115.042969 333.609375 C 113.445312 344.554688 110.144531 355.027344 105.917969 365.230469 C 101.53125 375.8125 96.210938 385.921875 90.390625 395.773438 C 86.167969 402.925781 81.828125 410.011719 77.550781 417.132812 C 73.769531 423.421875 70.160156 429.800781 67.089844 436.476562 C 62.503906 446.429688 59.128906 456.71875 58.101562 467.71875 C 57.191406 477.464844 58.457031 486.878906 61.910156 496.007812 C 65.671875 505.960938 71.675781 514.460938 79.054688 522.042969 C 86.023438 529.203125 93.972656 535.128906 102.367188 540.484375 C 109.914062 545.308594 117.707031 549.710938 125.558594 554.011719 C 154.515625 569.867188 184.324219 583.960938 214.757812 596.734375 C 235.425781 605.410156 256.121094 614.015625 276.527344 623.292969 C 295.472656 631.910156 314.21875 640.914062 332.339844 651.175781 C 345.125 658.414062 357.492188 666.285156 368.996094 675.460938 C 386.71875 689.589844 401.027344 706.535156 411.34375 726.757812 C 423.285156 750.152344 429.46875 775.128906 431.503906 801.214844 C 431.730469 804.117188 431.9375 807.019531 432.15625 809.921875 C 288.148438 809.921875 144.144531 809.921875 0 809.921875 C 0 617.277344 0 424.632812 0 231.988281 " fill-opacity="1" fill-rule="nonzero"/></g><g clip-path="url(#cedef61dd7)"><path fill="#ffffff" d="M 357.898438 767.949219 C 358.21875 753.035156 356.632812 737.808594 350.601562 723.847656 C 344.890625 710.519531 335.054688 699.417969 322.363281 692.117188 C 296.347656 677.207031 263.667969 678.160156 235.113281 681.964844 C 201.480469 686.089844 168.800781 695.609375 137.074219 707.03125 C 104.710938 718.769531 72.667969 732.414062 40.621094 744.789062 C 24.757812 751.132812 8.578125 756.84375 -7.605469 762.238281 C -23.46875 767.3125 -39.648438 772.707031 -55.832031 775.246094 C -72.011719 777.785156 -90.097656 774.929688 -96.757812 758.113281 C -103.421875 741.929688 -96.441406 724.480469 -88.511719 710.203125 C -70.742188 677.839844 -50.4375 647.066406 -28.863281 617.242188 C -18.074219 602.011719 -6.652344 587.417969 5.085938 572.824219 C 15.558594 560.132812 26.660156 547.757812 34.59375 533.164062 C 41.574219 520.472656 46.015625 505.242188 41.890625 490.648438 C 38.402344 478.589844 29.835938 467.167969 17.777344 462.726562 C 12.066406 460.507812 6.039062 460.507812 0.328125 462.09375 C -2.527344 463.042969 -1.257812 467.484375 1.597656 466.535156 C 15.558594 462.410156 27.929688 472.246094 34.277344 483.984375 C 41.890625 498.578125 38.71875 514.441406 31.421875 528.722656 C 23.804688 543.632812 12.066406 556.324219 1.597656 569.015625 C -9.507812 582.976562 -20.296875 596.9375 -30.765625 611.53125 C -52.023438 641.039062 -72.011719 671.496094 -90.097656 703.222656 C -98.027344 716.867188 -105.644531 732.414062 -103.738281 748.59375 C -102.152344 762.238281 -94.539062 774.292969 -81.210938 779.054688 C -66.933594 783.8125 -51.070312 779.6875 -37.109375 776.199219 C -20.929688 772.074219 -4.75 766.679688 11.117188 761.285156 C 43.160156 749.863281 74.253906 736.539062 105.664062 723.847656 C 137.074219 711.789062 168.484375 700.050781 201.164062 692.753906 C 231.625 685.773438 265.574219 680.695312 296.347656 687.359375 C 310.308594 690.53125 323.953125 696.5625 334.105469 707.03125 C 344.890625 718.453125 350.285156 733.683594 351.871094 748.910156 C 355.679688 782.226562 345.210938 815.222656 349.332031 848.21875 C 350.285156 856.152344 352.1875 864.082031 355.363281 871.382812 C 356.632812 874.238281 361.074219 872.96875 359.804688 870.113281 C 346.796875 837.75 357.582031 802.214844 357.898438 767.949219 Z M 357.898438 767.949219 " fill-opacity="1" fill-rule="nonzero"/></g></svg>